# xmcd
#
# Track frame offsets:
# 150
# 49995
# 79652
# 101814
# 131367
# 154490
#
# Disc length: 2424 seconds
#
#
# Revision: 0
# Processed by: cddbd v1.5.2PL0 Copyright (c) Steve Scherf et al.
# Submitted via: FreeRIP 2.945 
#
DISCID=4b097606
DTITLE=Zapp - Zapp II
DYEAR=1900
DGENRE=Funk
TTITLE0=Dance Floor
TTITLE1=Playin' Kinda Ruff
TTITLE2=Doo Wa Ditty
TTITLE3=Do You Really Want An Answer?
TTITLE4=Come On
TTITLE5=A Touch Of Jazz (Playin' Kinda Ruff Part II)
EXTD=
EXTT0=
EXTT1=
EXTT2=
EXTT3=
EXTT4=
EXTT5=
PLAYORDER=
